<?xml version="1.0" standalone="no"?>
<!DOCTYPE svg PUBLIC "-//W3C//DTD SVG 20010904//EN"
 "http://www.w3.org/TR/2001/REC-SVG-20010904/DTD/svg10.dtd">
<svg version="1.0" xmlns="http://www.w3.org/2000/svg"
 width="980.000000pt" height="980.000000pt" viewBox="0 0 980.000000 980.000000"
 preserveAspectRatio="xMidYMid meet">

<g transform="translate(0.000000,980.000000) scale(0.100000,-0.100000)"
fill="#000000" stroke="none">
<path d="M8485 7665 c-5 -2 -51 -16 -102 -31 -54 -16 -90 -31 -86 -37 3 -6 1
-7 -6 -3 -12 8 -121 -32 -121 -44 0 -3 -8 -6 -17 -7 -21 -2 -244 -109 -388
-187 -270 -145 -328 -180 -317 -191 4 -5 1 -5 -6 -1 -6 4 -24 -1 -40 -12 -15
-10 -50 -31 -79 -47 -29 -15 -50 -31 -48 -35 2 -4 -2 -7 -10 -7 -22 0 -326
-194 -320 -204 3 -5 0 -6 -7 -4 -8 3 -65 -28 -128 -70 -289 -189 -632 -423
-642 -439 -4 -6 -8 -7 -8 -2 0 5 -7 3 -15 -4 -8 -7 -12 -17 -8 -23 3 -6 1 -7
-6 -3 -13 9 -143 -83 -135 -96 3 -4 -1 -5 -8 -3 -8 3 -23 -4 -35 -15 -12 -11
-25 -20 -29 -20 -11 0 -53 -37 -49 -44 3 -3 2 -4 -1 -1 -12 8 -45 -16 -38 -27
4 -7 2 -8 -5 -4 -7 5 -24 -6 -43 -26 -17 -18 -28 -27 -24 -20 6 11 -127 -80
-144 -98 -3 -3 -18 -13 -33 -23 -15 -10 -25 -23 -21 -29 4 -6 3 -8 -4 -4 -13
8 -304 -202 -297 -214 3 -5 0 -12 -6 -16 -8 -4 -9 -3 -5 4 13 22 -13 12 -29
-10 -8 -13 -18 -22 -20 -20 -6 3 -283 -203 -300 -222 -5 -7 -26 -23 -45 -36
-19 -13 -79 -58 -132 -100 -53 -41 -131 -101 -172 -134 -42 -32 -73 -63 -69
-69 3 -5 1 -7 -4 -4 -6 4 -60 -32 -119 -79 -60 -47 -132 -104 -161 -127 -28
-22 -49 -45 -46 -50 3 -6 2 -7 -4 -4 -5 3 -70 -43 -144 -104 -74 -60 -167
-135 -206 -165 -40 -31 -82 -67 -92 -80 -11 -14 -23 -25 -28 -26 -16 -2 -93
-71 -87 -79 3 -5 -1 -7 -8 -4 -7 3 -43 -21 -79 -53 -73 -63 -123 -104 -185
-154 -114 -91 -213 -182 -207 -191 4 -6 1 -7 -6 -2 -15 9 -83 -53 -74 -68 4
-6 1 -7 -6 -2 -7 4 -22 -2 -36 -15 -19 -18 -26 -20 -30 -9 -10 27 -178 527
-285 850 -126 378 -158 461 -173 452 -6 -4 -7 -1 -3 6 10 16 -44 119 -98 188
-34 45 -42 50 -60 42 -19 -9 -20 -9 -3 4 21 18 22 31 1 23 -8 -3 -12 -2 -9 4
6 10 -33 60 -47 60 -5 0 -6 -5 -2 -12 4 -7 3 -8 -5 -4 -6 4 -9 11 -6 16 8 13
-59 64 -129 99 -89 45 -167 62 -281 63 -170 1 -310 -50 -433 -159 -53 -47
-130 -146 -137 -176 -1 -7 -10 -30 -19 -51 -27 -61 -46 -163 -46 -251 0 -120
42 -361 61 -349 5 3 6 -2 3 -11 -7 -17 8 -64 401 -1265 57 -173 128 -391 158
-485 31 -93 61 -183 68 -200 6 -16 13 -37 14 -45 5 -40 90 -282 117 -332 40
-76 120 -152 151 -143 15 4 18 4 8 -3 -10 -7 2 -16 45 -33 53 -21 76 -23 224
-23 118 -1 190 4 251 17 117 23 311 86 304 97 -3 6 0 7 8 4 16 -6 248 106 242
116 -2 4 2 7 8 7 45 0 387 269 372 293 -3 4 3 7 13 6 10 0 17 6 17 16 0 10 7
23 15 30 12 11 12 11 1 -4 -23 -31 4 -20 37 15 18 18 29 37 25 42 -5 4 -3 5 3
2 14 -8 87 66 77 78 -5 4 -3 5 3 2 14 -8 87 66 77 78 -5 4 -3 5 3 2 13 -8 397
376 387 388 -4 4 -3 5 3 2 14 -8 548 529 539 543 -4 6 -2 9 4 8 15 -4 82 62
75 74 -4 6 -3 8 3 5 5 -4 51 36 101 87 51 51 94 91 97 88 11 -11 4 15 -7 28
-11 12 -10 12 5 1 15 -12 20 -11 31 5 8 10 12 23 9 28 -4 5 -1 6 4 3 13 -8 46
27 36 38 -5 4 -3 5 3 2 14 -8 47 26 37 37 -5 4 -1 6 7 4 8 -2 14 3 12 10 -1 8
1 11 6 8 12 -7 404 388 395 399 -4 4 -3 5 3 2 14 -8 67 46 57 58 -5 4 -3 5 3
2 11 -6 81 61 77 75 -2 4 3 7 10 5 6 -1 11 4 9 11 -1 8 2 11 7 8 19 -12 22 16
4 37 -18 22 -18 22 3 4 26 -21 38 -22 30 -1 -4 10 -2 13 6 8 6 -4 17 1 25 11
7 11 139 146 294 302 154 155 278 287 275 292 -4 5 -1 13 5 17 8 5 9 3 4 -6
-5 -8 -3 -11 6 -8 8 3 14 13 14 23 0 10 8 19 18 21 26 4 49 25 43 40 -5 14 17
37 27 27 4 -3 20 9 36 28 28 32 29 35 13 54 -17 20 -17 20 4 3 20 -17 25 -13
253 217 128 129 234 243 236 253 2 9 4 22 4 27 1 6 5 4 10 -4 7 -11 16 -6 43
24 18 21 32 43 30 48 -1 4 1 6 6 3 5 -3 111 97 235 223 202 203 253 258 215
235 -7 -4 -8 -3 -4 5 4 6 11 9 16 6 11 -7 435 423 434 440 -1 7 4 11 10 9 15
-6 181 165 181 186 0 9 8 14 18 12 20 -3 23 14 5 22 -7 3 -5 4 5 3 21 -2 217
190 217 214 0 31 -42 48 -85 34z m-654 -322 c13 -17 13 -17 -6 -3 -11 8 -22
16 -24 17 -2 2 0 3 6 3 6 0 17 -8 24 -17z m-26 -11 c-3 -3 -11 0 -18 7 -9 10
-8 11 6 5 10 -3 15 -9 12 -12z m-310 -152 c-3 -5 -12 -10 -18 -10 -7 0 -6 4 3
10 19 12 23 12 15 0z m-458 -274 c0 -8 -6 -12 -15 -9 -11 5 -11 7 0 14 7 5 13
9 14 9 0 0 1 -6 1 -14z m260 -528 c-3 -8 -6 -5 -6 6 -1 11 2 17 5 13 3 -3 4
-12 1 -19z m-4834 -1121 c3 -8 -1 -14 -8 -14 -7 0 -11 6 -8 14 3 7 6 13 8 13
2 0 5 -6 8 -13z m3247 -511 c0 -2 -8 -10 -17 -17 -16 -13 -17 -12 -4 4 13 16
21 21 21 13z m-1875 -216 c3 -6 -1 -7 -9 -4 -18 7 -21 14 -7 14 6 0 13 -4 16
-10z m-887 -645 c-3 -3 -9 2 -12 12 -6 14 -5 15 5 6 7 -7 10 -15 7 -18z m1900
-26 c3 -12 2 -12 -6 0 -6 8 -15 10 -22 6 -9 -5 -11 -4 -6 4 10 15 28 10 34
-10z m-88 -94 c-7 -8 -17 -15 -23 -15 -6 0 -2 8 9 19 22 21 33 19 14 -4z
m-160 -159 c0 -2 -8 -10 -17 -17 -16 -13 -17 -12 -4 4 13 16 21 21 21 13z
m-496 -501 c-20 -30 -20 -30 -20 -6 0 11 4 18 7 15 4 -2 10 0 14 6 3 5 8 10
11 10 2 0 -3 -11 -12 -25z m-64 -29 c0 -2 -8 -10 -17 -17 -16 -13 -17 -12 -4
4 13 16 21 21 21 13z m-1 -33 c-13 -16 -25 -29 -25 -31 -1 -2 -4 4 -8 13 -3 9
-2 14 3 11 4 -3 16 3 26 14 10 11 20 20 23 20 3 0 -5 -12 -19 -27z m-479 -469
c0 -2 -9 0 -20 6 -11 6 -20 13 -20 16 0 2 9 0 20 -6 11 -6 20 -13 20 -16z
m-90 -68 c-7 -7 -13 -7 -20 0 -6 6 -3 10 10 10 13 0 16 -4 10 -10z"/>
<path d="M6585 5610 c-3 -5 -1 -10 4 -10 6 0 11 5 11 10 0 6 -2 10 -4 10 -3 0
-8 -4 -11 -10z"/>
</g>
</svg>
